<?xml version="1.0" encoding="UTF-8"?>
<svg id="_圖層_1" data-name="圖層_1" xmlns="http://www.w3.org/2000/svg" version="1.1" viewBox="0 0 300 300">
  <!-- Generator: Adobe Illustrator 29.1.0, SVG Export Plug-In . SVG Version: 2.1.0 Build 142)  -->
  <defs>
    <style>
      .st0 {
        fill: #c2996c;
      }

      .st1 {
        fill: #41210d;
      }
    </style>
  </defs>
  <g>
    <polygon class="st1" points="84.53 268.17 75.1 245.87 62.15 245.87 62.15 276.49 70.25 276.49 70.25 253.53 80.14 276.49 88.89 276.49 99.32 253.53 99.32 276.49 107.42 276.49 107.42 245.87 94.47 245.87 84.53 268.17"/>
    <path class="st1" d="M129.48,245.87l-16.55,30.63h28.66l-3.59-6.74h-12.4l8.78-16.5,12.37,23.24h9.03l-16.55-30.63h-9.77Z"/>
    <path class="st1" d="M228.81,276.49h9.03l-16.55-30.63h-9.77l-16.55,30.63h28.66l-3.59-6.74h-12.4l8.78-16.5,12.37,23.24Z"/>
    <path class="st1" d="M159.15,256.89v8.59c0,6.09,4.93,11.02,11.02,11.02h21.53v-5.46h-17.59c-3.07,0-5.56-2.49-5.56-5.56v-8.59c0-3.07,2.49-5.56,5.56-5.56h17.59v-5.46h-21.53c-6.09,0-11.02,4.93-11.02,11.02Z"/>
  </g>
  <g>
    <g>
      <path class="st0" d="M182.55,74.48c-18.86,15.34-46.24,15.34-65.1,0l-9.45,4.5v43.46c-1.96-.74-4.06-1.16-6.27-1.16-9.85,0-17.87,8.01-17.87,17.87s8.01,17.87,17.87,17.87,17.87-8.01,17.87-17.87v-49.32c9.27,5.08,19.75,7.81,30.41,7.81s21.14-2.73,30.41-7.81v32.61c-1.96-.74-4.06-1.16-6.27-1.16-9.85,0-17.87,8.01-17.87,17.87s8.01,17.87,17.87,17.87,17.87-8.01,17.87-17.87v-60.17l-9.45-4.5Z"/>
      <path class="st1" d="M156.27,158.99c3.25,2.93,7.21,5.06,11.59,6.12v3.92l-4.6,16.13c-.34,1.2-2.04,1.2-2.39,0l-4.6-16.13v-10.04ZM132.13,73.27c3.71,1.7,7.62,2.83,11.59,3.42v-27.42c0-3.2-2.6-5.8-5.8-5.8h0c-3.2,0-5.8,2.6-5.8,5.8v24ZM108,56.12v13.06l11.59-5.52v-7.55c0-3.2-2.6-5.8-5.8-5.8h0c-3.2,0-5.8,2.6-5.8,5.8ZM132.13,169.03l4.6,16.13c.34,1.2,2.04,1.2,2.39,0l4.6-16.13v-62.83c-3.91-.35-7.79-1.01-11.59-1.99v64.82ZM108,174.6l4.6,16.13c.34,1.2,2.04,1.2,2.39,0l4.6-16.13v-15.61c-3.25,2.93-7.21,5.07-11.59,6.13v9.48ZM83.86,180.25l4.6,16.13c.34,1.2,2.04,1.2,2.39,0l4.6-16.13v-15.13c-4.38-1.06-8.35-3.2-11.59-6.12v21.26ZM83.86,119.31c3.25-2.93,7.21-5.07,11.59-6.13V39.89c0-3.2-2.6-5.8-5.8-5.8h0c-3.2,0-5.8,2.6-5.8,5.8v79.42ZM180.41,63.67l11.59,5.52v-13.06c0-3.2-2.6-5.8-5.8-5.8h0c-3.2,0-5.8,2.6-5.8,5.8v7.55ZM156.27,119.31c3.25-2.93,7.21-5.07,11.59-6.13v-8.97c-3.8.98-7.68,1.64-11.59,1.99v13.11ZM204.55,39.89v140.36l4.6,16.13c.34,1.2,2.04,1.2,2.39,0l4.6-16.13V39.89c0-3.2-2.6-5.8-5.8-5.8h0c-3.2,0-5.8,2.6-5.8,5.8ZM156.27,76.68c3.98-.58,7.88-1.72,11.59-3.42v-24c0-3.2-2.6-5.8-5.8-5.8h0c-3.2,0-5.8,2.6-5.8,5.8v27.42ZM180.41,174.6l4.6,16.13c.34,1.2,2.04,1.2,2.39,0l4.6-16.13v-15.61c-3.25,2.93-7.21,5.07-11.59,6.13v9.48ZM228.69,30.52v149.73l4.6,16.13c.34,1.2,2.04,1.2,2.39,0l4.6-16.13V30.52c0-3.2-2.6-5.8-5.8-5.8h0c-3.2,0-5.8,2.6-5.8,5.8ZM59.72,30.52v149.73l4.6,16.13c.34,1.2,2.04,1.2,2.39,0l4.6-16.13V30.52c0-3.2-2.6-5.8-5.8-5.8h0c-3.2,0-5.8,2.6-5.8,5.8Z"/>
    </g>
    <path class="st1" d="M58.63,203.7h30.71v15.52h-30.71v-15.52ZM241.37,203.7h-30.71v15.52h30.71v-15.52ZM51.31,238.41h33.17v-15.52h-33.17v15.52ZM215.52,222.9v15.52h33.17v-15.52h-33.17ZM188.58,207.32c-6.14-1.66-10.46-7.37-11.35-13.54-1.14-5.49-6.06-9.89-11.65-10.39-9.3-1.06-16.89,7.95-13.91,16.86,1.71,5.23,7.73,9.86,13.15,7.15,5.31-2.89,4.79-10.45-1.54-11.13,1.62.94,3.15,2.57,2.86,4.44-.22,1.57-1.56,2.81-2.85,3.05-1.82.44-3.58-1.14-4.57-2.67-1.99-3.05-1-7.58,2.3-9.22,3.6-1.89,8.06.38,8.63,4.39,1.14,5.26,4.31,10.12,8.68,13.25h-56.67c4.37-3.13,7.54-7.99,8.68-13.25.58-4.02,5.03-6.27,8.63-4.39,3.3,1.64,4.29,6.17,2.3,9.22-.99,1.54-2.76,3.11-4.57,2.67-1.29-.25-2.64-1.49-2.85-3.05-.29-1.87,1.24-3.5,2.86-4.44-6.32.67-6.86,8.24-1.54,11.13,5.42,2.71,11.45-1.92,13.15-7.15,2.99-8.91-4.61-17.92-13.91-16.86-5.59.49-10.51,4.9-11.65,10.39-.88,6.17-5.2,11.88-11.35,13.54-6.8,1.7-13.84,1.63-20.54-1.13,1.24,1.29,2.68,2.4,4.25,3.32h-3.03v7.7h115.81v-7.7h-3.03c1.57-.93,3.01-2.03,4.25-3.32-6.7,2.77-13.74,2.83-20.54,1.13Z"/>
  </g>
</svg>